<svg data-v-423bf9ae="" xmlns="http://www.w3.org/2000/svg" viewBox="0 0 542 90" class="iconLeft"><!----><!----><!----><g data-v-423bf9ae="" id="50a3ff6e-45b4-4207-9729-43dea7a12de1" fill="black" transform="matrix(4.5696880300864295,0,0,4.5696880300864295,75.86249266736559,-9.447831955674467)"><path d="M2.49 14.67L2.49 18.48L0.73 18.48L0.73 8.74L2.49 8.74L2.49 9.74L2.74 9.74L2.74 9.74Q3.02 9.17 3.56 8.86L3.56 8.86L3.56 8.86Q4.09 8.54 4.91 8.54L4.91 8.54L4.91 8.54Q5.53 8.54 6.08 8.78L6.08 8.78L6.08 8.78Q6.64 9.02 7.05 9.47L7.05 9.47L7.05 9.47Q7.46 9.93 7.71 10.58L7.71 10.58L7.71 10.58Q7.95 11.24 7.95 12.08L7.95 12.08L7.95 12.33L7.95 12.33Q7.95 13.19 7.71 13.85L7.71 13.85L7.71 13.85Q7.48 14.50 7.07 14.96L7.07 14.96L7.07 14.96Q6.66 15.41 6.11 15.64L6.11 15.64L6.11 15.64Q5.56 15.88 4.91 15.88L4.91 15.88L4.91 15.88Q4.44 15.88 4.09 15.78L4.09 15.78L4.09 15.78Q3.74 15.68 3.48 15.51L3.48 15.51L3.48 15.51Q3.22 15.34 3.04 15.13L3.04 15.13L3.04 15.13Q2.87 14.91 2.74 14.67L2.74 14.67L2.49 14.67ZM4.34 14.20L4.34 14.20L4.34 14.20Q5.17 14.20 5.68 13.68L5.68 13.68L5.68 13.68Q6.19 13.17 6.19 12.29L6.19 12.29L6.19 12.12L6.19 12.12Q6.19 11.24 5.68 10.73L5.68 10.73L5.68 10.73Q5.17 10.22 4.34 10.22L4.34 10.22L4.34 10.22Q3.51 10.22 3.00 10.74L3.00 10.74L3.00 10.74Q2.49 11.27 2.49 12.12L2.49 12.12L2.49 12.29L2.49 12.29Q2.49 13.15 3.00 13.67L3.00 13.67L3.00 13.67Q3.51 14.20 4.34 14.20ZM14.36 12.38L14.36 8.74L16.13 8.74L16.13 15.68L14.36 15.68L14.36 14.67L14.11 14.67L14.11 14.67Q13.65 15.88 12.12 15.88L12.12 15.88L12.12 15.88Q11.61 15.88 11.16 15.71L11.16 15.71L11.16 15.71Q10.71 15.54 10.37 15.19L10.37 15.19L10.37 15.19Q10.04 14.84 9.85 14.31L9.85 14.31L9.85 14.31Q9.66 13.79 9.66 13.08L9.66 13.08L9.66 8.74L11.42 8.74L11.42 12.71L11.42 12.71Q11.42 13.45 11.77 13.87L11.77 13.87L11.77 13.87Q12.12 14.28 12.82 14.28L12.82 14.28L12.82 14.28Q13.62 14.28 13.99 13.77L13.99 13.77L13.99 13.77Q14.36 13.26 14.36 12.38L14.36 12.38ZM20.55 5.88L20.55 11.28L20.89 11.28L22.74 8.74L24.67 8.74L24.67 8.82L22.43 12.00L22.43 12.25L24.89 15.60L24.89 15.68L22.88 15.68L20.89 12.96L20.55 12.96L20.55 15.68L18.79 15.68L18.79 5.88L20.55 5.88ZM29.12 5.88L29.12 11.28L29.46 11.28L31.30 8.74L33.24 8.74L33.24 8.82L31.00 12.00L31.00 12.25L33.46 15.60L33.46 15.68L31.44 15.68L29.46 12.96L29.12 12.96L29.12 15.68L27.36 15.68L27.36 5.88L29.12 5.88ZM37.58 10.70L37.58 10.70L37.58 10.70Q37.58 11.03 37.93 11.18L37.93 11.18L37.93 11.18Q38.28 11.33 39.20 11.42L39.20 11.42L39.20 11.42Q40.26 11.54 40.94 12.06L40.94 12.06L40.94 12.06Q41.61 12.59 41.61 13.52L41.61 13.52L41.61 13.61L41.61 13.61Q41.61 14.64 40.85 15.26L40.85 15.26L40.85 15.26Q40.10 15.88 38.72 15.88L38.72 15.88L38.72 15.88Q37.91 15.88 37.34 15.67L37.34 15.67L37.34 15.67Q36.76 15.46 36.39 15.14L36.39 15.14L36.39 15.14Q36.01 14.83 35.80 14.44L35.80 14.44L35.80 14.44Q35.60 14.06 35.53 13.69L35.53 13.69L37.16 13.16L37.16 13.16Q37.27 13.61 37.63 13.94L37.63 13.94L37.63 13.94Q37.98 14.28 38.72 14.28L38.72 14.28L38.72 14.28Q39.38 14.28 39.63 14.08L39.63 14.08L39.63 14.08Q39.87 13.87 39.87 13.64L39.87 13.64L39.87 13.64Q39.87 13.50 39.81 13.38L39.81 13.38L39.81 13.38Q39.75 13.26 39.58 13.15L39.58 13.15L39.58 13.15Q39.41 13.05 39.12 12.98L39.12 12.98L39.12 12.98Q38.84 12.91 38.40 12.87L38.40 12.87L38.40 12.87Q37.23 12.77 36.53 12.26L36.53 12.26L36.53 12.26Q35.84 11.75 35.84 10.75L35.84 10.75L35.84 10.67L35.84 10.67Q35.84 10.15 36.06 9.76L36.06 9.76L36.06 9.76Q36.29 9.37 36.65 9.09L36.65 9.09L36.65 9.09Q37.02 8.82 37.49 8.68L37.49 8.68L37.49 8.68Q37.97 8.54 38.47 8.54L38.47 8.54L38.47 8.54Q39.13 8.54 39.61 8.70L39.61 8.70L39.61 8.70Q40.10 8.86 40.43 9.12L40.43 9.12L40.43 9.12Q40.77 9.38 40.98 9.70L40.98 9.70L40.98 9.70Q41.19 10.01 41.30 10.30L41.30 10.30L39.70 10.95L39.70 10.95Q39.58 10.57 39.27 10.35L39.27 10.35L39.27 10.35Q38.96 10.14 38.47 10.14L38.47 10.14L38.47 10.14Q38.02 10.14 37.80 10.30L37.80 10.30L37.80 10.30Q37.58 10.46 37.58 10.70ZM48.45 14.55L48.45 14.55L48.45 14.55Q48.45 14.83 48.35 15.07L48.35 15.07L48.35 15.07Q48.24 15.32 48.06 15.49L48.06 15.49L48.06 15.49Q47.88 15.67 47.63 15.77L47.63 15.77L47.63 15.77Q47.39 15.88 47.12 15.88L47.12 15.88L47.12 15.88Q46.84 15.88 46.61 15.77L46.61 15.77L46.61 15.77Q46.37 15.67 46.19 15.49L46.19 15.49L46.19 15.49Q46.00 15.32 45.90 15.07L45.90 15.07L45.90 15.07Q45.79 14.83 45.79 14.55L45.79 14.55L45.79 14.55Q45.79 14.27 45.90 14.02L45.90 14.02L45.90 14.02Q46.00 13.78 46.19 13.60L46.19 13.60L46.19 13.60Q46.37 13.43 46.61 13.32L46.61 13.32L46.61 13.32Q46.84 13.22 47.12 13.22L47.12 13.22L47.12 13.22Q47.39 13.22 47.63 13.32L47.63 13.32L47.63 13.32Q47.88 13.43 48.06 13.60L48.06 13.60L48.06 13.60Q48.24 13.78 48.35 14.02L48.35 14.02L48.35 14.02Q48.45 14.27 48.45 14.55ZM59.30 12.12L59.30 12.29L59.30 12.29Q59.30 13.16 59.01 13.82L59.01 13.82L59.01 13.82Q58.72 14.49 58.21 14.95L58.21 14.95L58.21 14.95Q57.71 15.40 57.06 15.64L57.06 15.64L57.06 15.64Q56.41 15.88 55.69 15.88L55.69 15.88L55.69 15.88Q54.98 15.88 54.33 15.64L54.33 15.64L54.33 15.64Q53.68 15.40 53.17 14.95L53.17 14.95L53.17 14.95Q52.67 14.49 52.37 13.82L52.37 13.82L52.37 13.82Q52.08 13.16 52.08 12.29L52.08 12.29L52.08 12.12L52.08 12.12Q52.08 11.27 52.37 10.61L52.37 10.61L52.37 10.61Q52.67 9.94 53.17 9.48L53.17 9.48L53.17 9.48Q53.68 9.02 54.33 8.78L54.33 8.78L54.33 8.78Q54.98 8.54 55.69 8.54L55.69 8.54L55.69 8.54Q56.41 8.54 57.06 8.78L57.06 8.78L57.06 8.78Q57.71 9.02 58.21 9.48L58.21 9.48L58.21 9.48Q58.72 9.94 59.01 10.61L59.01 10.61L59.01 10.61Q59.30 11.27 59.30 12.12L59.30 12.12ZM55.69 14.20L55.69 14.20L55.69 14.20Q56.07 14.20 56.41 14.07L56.41 14.07L56.41 14.07Q56.74 13.94 56.99 13.71L56.99 13.71L56.99 13.71Q57.25 13.47 57.39 13.13L57.39 13.13L57.39 13.13Q57.54 12.78 57.54 12.35L57.54 12.35L57.54 12.07L57.54 12.07Q57.54 11.63 57.39 11.29L57.39 11.29L57.39 11.29Q57.25 10.95 56.99 10.71L56.99 10.71L56.99 10.71Q56.74 10.47 56.41 10.35L56.41 10.35L56.41 10.35Q56.07 10.22 55.69 10.22L55.69 10.22L55.69 10.22Q55.31 10.22 54.98 10.35L54.98 10.35L54.98 10.35Q54.64 10.47 54.39 10.71L54.39 10.71L54.39 10.71Q54.14 10.95 53.99 11.29L53.99 11.29L53.99 11.29Q53.84 11.63 53.84 12.07L53.84 12.07L53.84 12.35L53.84 12.35Q53.84 12.78 53.99 13.13L53.99 13.13L53.99 13.13Q54.14 13.47 54.39 13.71L54.39 13.71L54.39 13.71Q54.64 13.94 54.98 14.07L54.98 14.07L54.98 14.07Q55.31 14.20 55.69 14.20ZM62.83 12.07L62.83 15.68L61.07 15.68L61.07 8.74L62.83 8.74L62.83 9.77L63.08 9.77L63.08 9.77Q63.32 9.18 63.85 8.86L63.85 8.86L63.85 8.86Q64.39 8.54 65.10 8.54L65.10 8.54L65.10 8.54Q65.60 8.54 66.04 8.70L66.04 8.70L66.04 8.70Q66.49 8.86 66.82 9.20L66.82 9.20L66.82 9.20Q67.16 9.53 67.35 10.05L67.35 10.05L67.35 10.05Q67.54 10.57 67.54 11.28L67.54 11.28L67.54 15.68L65.77 15.68L65.77 11.73L65.77 11.73Q65.77 10.99 65.41 10.56L65.41 10.56L65.41 10.56Q65.06 10.14 64.39 10.14L64.39 10.14L64.39 10.14Q63.60 10.14 63.22 10.66L63.22 10.66L63.22 10.66Q62.83 11.19 62.83 12.07L62.83 12.07ZM69.59 15.68L69.59 14L72.03 14L72.03 7.56L69.68 7.56L69.68 5.88L73.79 5.88L73.79 14L76.06 14L76.06 15.68L69.59 15.68ZM78.33 15.68L78.33 14L80.68 14L80.68 10.42L78.50 10.42L78.50 8.74L82.45 8.74L82.45 14L84.46 14L84.46 15.68L78.33 15.68ZM82.88 6.68L82.88 6.68L82.88 6.68Q82.88 6.96 82.77 7.20L82.77 7.20L82.77 7.20Q82.67 7.45 82.49 7.62L82.49 7.62L82.49 7.62Q82.31 7.80 82.06 7.90L82.06 7.90L82.06 7.90Q81.82 8.01 81.55 8.01L81.55 8.01L81.55 8.01Q81.27 8.01 81.03 7.90L81.03 7.90L81.03 7.90Q80.79 7.80 80.61 7.62L80.61 7.62L80.61 7.62Q80.43 7.45 80.32 7.20L80.32 7.20L80.32 7.20Q80.22 6.96 80.22 6.68L80.22 6.68L80.22 6.68Q80.22 6.40 80.32 6.15L80.32 6.15L80.32 6.15Q80.43 5.91 80.61 5.73L80.61 5.73L80.61 5.73Q80.79 5.56 81.03 5.45L81.03 5.45L81.03 5.45Q81.27 5.35 81.55 5.35L81.55 5.35L81.55 5.35Q81.82 5.35 82.06 5.45L82.06 5.45L82.06 5.45Q82.31 5.56 82.49 5.73L82.49 5.73L82.49 5.73Q82.67 5.91 82.77 6.15L82.77 6.15L82.77 6.15Q82.88 6.40 82.88 6.68ZM88.54 12.07L88.54 15.68L86.77 15.68L86.77 8.74L88.54 8.74L88.54 9.77L88.79 9.77L88.79 9.77Q89.03 9.18 89.56 8.86L89.56 8.86L89.56 8.86Q90.09 8.54 90.80 8.54L90.80 8.54L90.80 8.54Q91.31 8.54 91.75 8.70L91.75 8.70L91.75 8.70Q92.19 8.86 92.53 9.20L92.53 9.20L92.53 9.20Q92.86 9.53 93.05 10.05L93.05 10.05L93.05 10.05Q93.24 10.57 93.24 11.28L93.24 11.28L93.24 15.68L91.48 15.68L91.48 11.73L91.48 11.73Q91.48 10.99 91.12 10.56L91.12 10.56L91.12 10.56Q90.76 10.14 90.09 10.14L90.09 10.14L90.09 10.14Q89.31 10.14 88.92 10.66L88.92 10.66L88.92 10.66Q88.54 11.19 88.54 12.07L88.54 12.07ZM101.99 12.78L96.89 12.78L96.89 12.78Q96.91 13.09 97.04 13.35L97.04 13.35L97.04 13.35Q97.17 13.61 97.40 13.80L97.40 13.80L97.40 13.80Q97.64 13.99 97.94 14.09L97.94 14.09L97.94 14.09Q98.24 14.20 98.57 14.20L98.57 14.20L98.57 14.20Q99.23 14.20 99.58 13.96L99.58 13.96L99.58 13.96Q99.93 13.73 100.09 13.41L100.09 13.41L101.60 14.25L101.60 14.25Q101.47 14.52 101.25 14.80L101.25 14.80L101.25 14.80Q101.02 15.09 100.67 15.33L100.67 15.33L100.67 15.33Q100.31 15.57 99.80 15.72L99.80 15.72L99.80 15.72Q99.29 15.88 98.60 15.88L98.60 15.88L98.60 15.88Q97.82 15.88 97.17 15.62L97.17 15.62L97.17 15.62Q96.53 15.37 96.06 14.90L96.06 14.90L96.06 14.90Q95.59 14.42 95.33 13.73L95.33 13.73L95.33 13.73Q95.07 13.05 95.07 12.18L95.07 12.18L95.07 12.10L95.07 12.10Q95.07 11.30 95.35 10.64L95.35 10.64L95.35 10.64Q95.62 9.98 96.10 9.52L96.10 9.52L96.10 9.52Q96.57 9.06 97.21 8.80L97.21 8.80L97.21 8.80Q97.85 8.54 98.57 8.54L98.57 8.54L98.57 8.54Q99.47 8.54 100.11 8.86L100.11 8.86L100.11 8.86Q100.76 9.17 101.18 9.65L101.18 9.65L101.18 9.65Q101.60 10.14 101.79 10.72L101.79 10.72L101.79 10.72Q101.99 11.30 101.99 11.84L101.99 11.84L101.99 12.78ZM98.56 10.14L98.56 10.14L98.56 10.14Q97.89 10.14 97.47 10.48L97.47 10.48L97.47 10.48Q97.05 10.82 96.92 11.27L96.92 11.27L100.20 11.27L100.20 11.27Q100.11 10.78 99.67 10.46L99.67 10.46L99.67 10.46Q99.23 10.14 98.56 10.14Z"></path></g><!----><g data-v-423bf9ae="" id="9b76d8e4-ae85-4345-a9c7-a40c1154678c" transform="matrix(1.0538315751577088,0,0,1.0538315751577088,-22.794285766882382,-7.396996752156433)" stroke="none" fill="black"><path d="M73.392 21.032c-3.223-3.631-7.469-5.791-11.874-6.429C52.845 5.318 39.312 5.069 30 13.333c-9.464 8.4-11 23-.795 33.718.254.267.124.145-.005.016-1.845 5.375-1.24 14.216 4.145 18.01-.156-.107-.229-.155.114.089-3 7.167-1.303 12.318 4.031 15.985-.679 2.042-1.906 5.265.757 8.596 2.74 3.428 10.389 4.366 14.89.613 4.031-3.361 3.488-7.568 2.322-10.235 4-2 8.99-5.224 6.787-12.659 1.603-2.012 2.099-3.799 2.369-6.273a13.205 13.205 0 0 0 6.084-3.055c3.765-3.34 5.165-8.362 4.133-13.04 5.119-7.058 4.736-17.107-1.44-24.066zM30.41 15.316c8.385-8.263 21.882-8.163 30.143.221.135.135.262.28.391.418-8.293-7.981-21.481-7.953-29.729.176-8.25 8.129-8.475 21.315-.615 29.725-.138-.131-.277-.261-.412-.398-8.26-8.383-8.163-21.878.222-30.142zm4.934 50.817C38.387 61.619 45.485 59.453 50 62.5c-4.49-2.863-11.224-.508-14.217 3.93a9.855 9.855 0 0 0 2.444 13.533l-.223-.143c-4.512-3.045-5.706-9.172-2.66-13.687zm2.494 20.937c-.737-2.47.278-7.07 3.487-8.07-3.117 1.013-3.898 5.673-3.175 8.101.732 2.432 4.684 4.9 8.017 4.733-3.354.168-7.587-2.291-8.329-4.764zm15.956-7.795c.947.969 1.588 2.771 1.712 4.097.351 3.781-2.759 7.987-7.683 8.444-.079.008-.159.012-.239.018 4.806-.545 7.559-4.61 7.214-8.329-.118-1.293-.984-2.731-1.857-3.716l-.018-.02c-1.637-1.844-4.324-3.035-7.458-2.807 3.184-.293 6.546.506 8.304 2.285 4.733-1.584 7.718-5.656 6.763-9.461-1.007-3.988-5.967-6.189-11.152-4.994.082-.021.168-.047.253-.07 5.28-1.328 10.391.881 11.411 4.936.991 3.934-2.236 8.153-7.25 9.617zm8.339-15.048c-.037.094-.081.186-.119.279 2.105-5.742-.732-12.146-6.45-14.418-5.718-2.272-12.178.441-14.584 6.065.036-.096.069-.191.105-.285 2.308-5.812 8.893-8.654 14.704-6.346 5.812 2.308 8.65 8.892 6.344 14.705zM39.956 38.595c-8.595 4.398-12.072 14.829-7.927 23.485-.077-.139-.154-.275-.229-.418-4.472-8.734-1.017-19.444 7.719-23.918 8.736-4.472 19.443-1.014 23.915 7.721.074.142.139.288.207.431-4.596-8.424-15.094-11.701-23.685-7.301zm24.306 20.899c-.109.023-.217.049-.327.074 6.523-1.881 10.53-8.057 8.986-13.946-1.554-5.894-8.08-9.298-14.685-7.726.107-.03.216-.063.323-.096 6.714-1.763 13.44 1.661 15.013 7.647 1.573 5.989-2.595 12.28-9.31 14.047zm9.541-13.717c4.245-8.875 2.873-21.952-6.318-26.665-9.192-4.715-18.631-1.702-23.363 6.926.071-.145.138-.295.213-.44 4.59-8.953 14.25-12.15 23.597-7.358 9.342 4.792 10.697 18.155 6.106 27.107-.075.147-.158.288-.235.43z"></path><path d="M29.2 47.068l.005-.016c-.266-.25-.135-.114-.005.016z"></path></g><!----></svg>